<svg version="1" xmlns="http://www.w3.org/2000/svg" width="682.667" height="682.667" viewBox="0 0 512.000000 512.000000"><path d="M25.5.9C17.2 3 9.2 8.7 5 15.5-.3 24 0 10.4.3 258l.2 229.5 2.2 4.7c4.5 9.6 13.1 16.6 23.3 18.7 4.1.9 61.8 1.1 233.5.9l228-.3 4.7-2.2c9.7-4.5 16.6-13.1 18.8-23.3.8-4.1 1-64.5.8-233.5l-.3-228-2.2-4.7c-3.1-6.7-9.6-13.3-16.2-16.5L487.5.5 258 .3C131.8.3 27.2.5 25.5.9zm454.1 63.3c.1 31.8.1 31.8-2 31.9H34.4c-2.1-.1-2.1-.3-2.1-31.9l-.1-31.9 223.7.1 223.6.1.1 31.7zM292 190.6c5.2 1.9 11.5 4.2 14 5.1 2.5.8 4.6 1.6 4.8 1.8.3.2-1.2 4.2-33.4 91.4-12.9 34.8-24.1 65-24.8 67-3.5 9.8-21 56.6-21.2 57-.2.2-4.3-1.1-9.1-2.9-4.8-1.7-9.2-3.3-9.8-3.4-.5-.2-2.3-.8-3.8-1.4-1.5-.7-3.9-1.5-5.2-1.8-1.4-.3-2.5-.8-2.5-1 0-.3 17-46.5 34.2-92.9 3.3-8.8 6.8-18.5 7.9-21.5 1.1-3 2.6-7.1 3.4-9 .7-1.9 3.9-10.5 7-19s6.5-17.5 7.4-20c1-2.5 5.8-15.4 10.7-28.7 4.9-13.4 9.4-24.3 9.9-24.3.6 0 5.3 1.6 10.5 3.6zm-115.8 41.5l11.1 11.1-30.4 30.4-30.4 30.4 30.4 30.4 30.4 30.4-11.2 11.1-11.3 11.1-41.6-41.5-41.5-41.6 41.4-41.4c22.8-22.8 41.5-41.5 41.7-41.5.1 0 5.2 5 11.4 11.1zm213.7 31.3l40.5 40.5-41.6 41.6-41.6 41.6-10.6-10.5c-5.8-5.8-10.7-11-10.8-11.5-.2-.6 13.2-14.5 29.7-31.1l30-30-30.4-30.4-30.4-30.4 10.9-11c8-8 11.3-10.7 12.4-10.1.8.4 19.7 19 41.9 41.3z"/><path d="M58.3 49.5C45.4 55 45 73.2 57.7 78.6c12.1 5.2 24.3-4.9 21.9-18.1-1.7-8.9-12.8-14.6-21.3-11zM98 49.6c-9.6 4.1-12.7 15.8-6.3 24.3 9.3 12.2 29.5 4.4 28.1-10.9-1.1-10.9-11.9-17.5-21.8-13.4zM137.4 49.9c-5.6 2.6-8.8 7.9-8.8 14.8 0 5.7 1.7 9 6.8 12.7 3.9 2.9 13.3 2.9 17.3 0 5.3-3.9 7.5-8.3 7.1-14-1-11.5-12-18.2-22.4-13.5z"/></svg>